<svg xmlns="http://www.w3.org/2000/svg" viewBox="0 0 129.39 33.22"><defs><style>.cls-1{fill:url(#linear-gradient)}.cls-2{fill:url(#linear-gradient-2)}.cls-3{fill:#fff}.cls-4,.cls-5{fill:none}.cls-5{stroke:#fff;stroke-width:5px}.cls-6,.cls-7{isolation:isolate}.cls-7{font-size:16px;fill:#272727;font-family:Montserrat-SemiBold,Montserrat;font-weight:700}.cls-8{letter-spacing:-.01em}</style><linearGradient id="linear-gradient" x1="-574.09" y1="511.91" x2="-573.89" y2="510.8" gradientTransform="scale(33.2 -33.2) rotate(30 668.51 1327.465)" gradientUnits="userSpaceOnUse"><stop offset="0" stop-color="#d1278f"/><stop offset="1" stop-color="#ff9443"/></linearGradient><linearGradient id="linear-gradient-2" x1="-558.93" y1="517.51" x2="-558.73" y2="516.4" gradientTransform="matrix(24.98 0 0 -31.02 13981.61 16054.56)" gradientUnits="userSpaceOnUse"><stop offset="0" stop-color="#1a0d82"/><stop offset="1" stop-color="#6426a1"/></linearGradient></defs><title>Asset 1</title><g id="Layer_2" data-name="Layer 2"><g id="Layer_1-2" data-name="Layer 1"><g id="Group_10" data-name="Group 10"><g id="Group_7" data-name="Group 7"><path id="Path_9-2" data-name="Path 9-2" class="cls-1" d="M24.9 31a16.6 16.6 0 1 0-22.67-6.08A16.6 16.6 0 0 0 24.9 31z"/><path id="Path_10-2" data-name="Path 10-2" class="cls-2" d="M16.6 0a16.52 16.52 0 0 0-8.28 2.23h-.08L24.84 31h.08a16.73 16.73 0 0 0 2.73-2 16.6 16.6 0 0 0 4.73-17.65 16.74 16.74 0 0 0-4.12-6.61 16.51 16.51 0 0 0-3.46-2.6A16.69 16.69 0 0 0 16.6 0z"/><circle id="Ellipse_5" data-name="Ellipse 5" class="cls-3" cx="16.63" cy="16.58" r="6.97"/><g id="Ellipse_6" data-name="Ellipse 6"><circle class="cls-4" cx="16.68" cy="16.63" r="9.24"/><circle class="cls-5" cx="16.68" cy="16.63" r="6.74"/></g></g><text class="cls-6 cls-7" transform="translate(46.52 22.94)" id="Day_Night" data-name="Day Night">D<tspan class="cls-8" x="13.22" y="0">a</tspan><tspan x="22.77" y="0">y Night</tspan></text></g></g></g></svg>